<?xml version="1.0" encoding="UTF-8"?>
<svg id="Layer_1" xmlns="http://www.w3.org/2000/svg" version="1.1" viewBox="0 0 654.8 123.4">
  <!-- Generator: Adobe Illustrator 29.2.1, SVG Export Plug-In . SVG Version: 2.1.0 Build 116)  -->
  <defs>
    <style>
      .st0 {
        fill: #fff;
      }
    </style>
  </defs>
  <path class="st0" d="M647.1,65.4c-17.3,1.1-34.2-6.1-39.7-9.1-2-1.1-1.9,1-1.9,1v29.4s0,0,0,0h0c-5.1,3.1-11.5,4.7-18.6,4.7h0c-17.1,0-29.1-12.6-29.1-30.6v-.3c0-16.5,12.3-30,27.3-30s14.9,2,21.5,6.7c2.1,1.5,5,3.2,9.6,3.2,8.7,0,15.7-7,15.7-15.7s-4.6-11.3-6.6-12.8c-11.2-7.8-23.3-11.3-39.4-11.3-24.8,0-45.6,13.9-55.2,34.3V6.4c0-2.2-1.8-4-4-4h-23.6c-2.2,0-4,1.8-4,4v55.1L455.2,4c-.8-1-1.9-1.6-3.2-1.6h-22.1c-2.2,0-4,1.8-4,4v36.4c-2.8-9.3-7.8-17.8-14.9-24.7-11.4-11.3-27.1-17.5-44.2-17.5-34.7,0-62,26.5-62,60.3v.3c0,.6,0,1.1,0,1.7-6.9-8.9-18.8-13.3-31.3-16.6-19.6-5-20.5-6.8-20.5-10.4v-.3c0-3.3,3.9-5.5,10-5.5s16.3,3.3,26,10c.9.6,2,.8,3,.6,1-.2,2-.8,2.6-1.7l12.4-18c1.2-1.7.8-4.1-.8-5.4-12.2-9.8-26.6-14.7-42.9-14.7s-31.4,7.6-38,19.8V6.4c0-2.2-1.8-4-4-4h-23.6c-2.2,0-4,1.8-4,4v55.1L150.2,4c-.8-1-1.9-1.6-3.2-1.6h-22.1c-2.2,0-4,1.8-4,4v36.4c-2.8-9.3-7.8-17.8-14.9-24.7C94.7,6.8,79,.5,61.9.5,27.1.5,0,27,0,60.8v.3c0,16.2,6.2,31.3,17.4,42.4,11.4,11.3,27.1,17.5,44.2,17.5,28.5,0,51.9-17.8,59.4-42.8v36.9c0,2.2,1.8,4,4,4h23.6c2.2,0,4-1.8,4-4v-57.3l45.5,59.7c.8,1,1.9,1.6,3.2,1.6h20.4c2.2,0,4-1.8,4-4v-7.3c12.1,8.3,26.6,12.8,41.7,12.8,24.9,0,41.5-12.8,43.7-33.1,2.9,5.8,6.7,11.2,11.4,15.9,11.4,11.3,27.1,17.5,44.2,17.5,28.5,0,51.9-17.8,59.4-42.8v36.9c0,2.2,1.8,4,4,4h23.6c2.2,0,4-1.8,4-4v-57.3l45.5,59.7c.8,1,1.9,1.6,3.2,1.6h20.4c2.2,0,4-1.8,4-4v-27.5c9.5,20.2,29.9,33.3,55.4,33.3h0c14.2,0,27.7-3.9,40.1-11.4,6.9-4.1,10.3-10.2,10.3-18.6v-11.2c19.4-10,16.6-14.7,10.6-14.3ZM80,81.1c-16,14.9-37,18.4-47,7.7-9.9-10.7-5-31.4,11-46.3,16-14.9,37-18.4,47-7.7,9.9,10.7,5,31.4-11,46.3ZM279.5,85.3c0,5.8-9,6.3-11.7,6.3-10.4,0-19.6-3.8-29.9-12.3-1.7-1.4-4.2-1.2-5.6.5l-6.6,7.9v-32.2c6.4,11.2,19.8,15.7,34.9,19.6,18.9,4.8,18.9,7.4,18.9,10v.3ZM385.1,81.1c-16,14.9-37,18.4-47,7.7-9.9-10.7-5-31.4,11-46.3,16-14.9,37-18.4,47-7.7,9.9,10.7,5,31.4-11,46.3Z"/>
  <path class="st0" d="M652.6,8.7c0,4.4-3.6,7.9-8.1,7.9s-8.1-3.5-8.1-7.9,3.6-7.9,8.2-7.9,8,3.5,8,7.9ZM638.4,8.7c0,3.5,2.6,6.3,6.1,6.3,3.4,0,6-2.8,6-6.2s-2.6-6.3-6.1-6.3-6,2.8-6,6.3ZM643.3,12.8h-1.8v-7.9c.7,0,1.7-.2,3-.2s2.2.2,2.7.6c.5.3.8.9.8,1.7s-.7,1.6-1.6,1.9h0c.8.3,1.2,1,1.4,2,.2,1.2.4,1.6.6,1.9h-1.9c-.2-.3-.4-1-.6-1.9-.1-.8-.6-1.2-1.6-1.2h-.9v3.1ZM643.3,8.3h.9c1,0,1.8-.3,1.8-1.2s-.5-1.2-1.7-1.2-.8,0-1,0v2.3Z"/>
</svg>